<mxfile host="app.diagrams.net" agent="Mozilla/5.0 (Windows NT 10.0; Win64; x64) AppleWebKit/537.36 (KHTML, like Gecko) Chrome/131.0.0.0 Safari/537.36" version="25.0.3">
  <diagram name="Página-1" id="_H82Ys6iBPOg0Mvh6ITd">
    <mxGraphModel dx="880" dy="468" grid="1" gridSize="10" guides="1" tooltips="1" connect="1" arrows="1" fold="1" page="1" pageScale="1" pageWidth="827" pageHeight="1169" math="0" shadow="0">
      <root>
        <mxCell id="0" />
        <mxCell id="1" parent="0" />
        <mxCell id="A362uCRUjKIMGUkiAdtS-3" value="" style="rounded=0;whiteSpace=wrap;html=1;fillColor=none;strokeWidth=2;" vertex="1" parent="1">
          <mxGeometry x="100" y="100" width="510" height="420" as="geometry" />
        </mxCell>
        <mxCell id="s7MVz6isGivTQxyH7vhq-11" style="edgeStyle=orthogonalEdgeStyle;rounded=0;orthogonalLoop=1;jettySize=auto;html=1;" parent="1" source="s7MVz6isGivTQxyH7vhq-1" target="s7MVz6isGivTQxyH7vhq-10" edge="1">
          <mxGeometry relative="1" as="geometry" />
        </mxCell>
        <mxCell id="s7MVz6isGivTQxyH7vhq-1" value="Usuário" style="shape=umlActor;verticalLabelPosition=bottom;verticalAlign=top;html=1;outlineConnect=0;" parent="1" vertex="1">
          <mxGeometry x="50" y="220" width="30" height="60" as="geometry" />
        </mxCell>
        <mxCell id="s7MVz6isGivTQxyH7vhq-31" style="rounded=0;orthogonalLoop=1;jettySize=auto;html=1;exitX=0;exitY=0.5;exitDx=0;exitDy=0;entryX=1;entryY=0.5;entryDx=0;entryDy=0;" parent="1" source="s7MVz6isGivTQxyH7vhq-3" target="s7MVz6isGivTQxyH7vhq-10" edge="1">
          <mxGeometry relative="1" as="geometry" />
        </mxCell>
        <mxCell id="s7MVz6isGivTQxyH7vhq-35" value="&amp;lt;&amp;lt;extends&amp;gt;&amp;gt;" style="edgeLabel;html=1;align=center;verticalAlign=middle;resizable=0;points=[];" parent="s7MVz6isGivTQxyH7vhq-31" vertex="1" connectable="0">
          <mxGeometry y="-2" relative="1" as="geometry">
            <mxPoint as="offset" />
          </mxGeometry>
        </mxCell>
        <mxCell id="s7MVz6isGivTQxyH7vhq-3" value="Visualizar dashboard" style="ellipse;whiteSpace=wrap;html=1;" parent="1" vertex="1">
          <mxGeometry x="290" y="120" width="90" height="60" as="geometry" />
        </mxCell>
        <mxCell id="s7MVz6isGivTQxyH7vhq-39" style="edgeStyle=orthogonalEdgeStyle;rounded=0;orthogonalLoop=1;jettySize=auto;html=1;exitX=0;exitY=0.5;exitDx=0;exitDy=0;entryX=1;entryY=0.5;entryDx=0;entryDy=0;" parent="1" source="s7MVz6isGivTQxyH7vhq-4" target="s7MVz6isGivTQxyH7vhq-14" edge="1">
          <mxGeometry relative="1" as="geometry" />
        </mxCell>
        <mxCell id="s7MVz6isGivTQxyH7vhq-40" value="&amp;lt;&amp;lt;extend&amp;gt;&amp;gt;" style="edgeLabel;html=1;align=center;verticalAlign=middle;resizable=0;points=[];" parent="s7MVz6isGivTQxyH7vhq-39" vertex="1" connectable="0">
          <mxGeometry relative="1" as="geometry">
            <mxPoint x="5" y="-1" as="offset" />
          </mxGeometry>
        </mxCell>
        <mxCell id="s7MVz6isGivTQxyH7vhq-4" value="Adicionar exchange" style="ellipse;whiteSpace=wrap;html=1;" parent="1" vertex="1">
          <mxGeometry x="460" y="370" width="90" height="60" as="geometry" />
        </mxCell>
        <mxCell id="s7MVz6isGivTQxyH7vhq-19" style="rounded=0;orthogonalLoop=1;jettySize=auto;html=1;exitX=0;exitY=0.5;exitDx=0;exitDy=0;entryX=1;entryY=0.5;entryDx=0;entryDy=0;" parent="1" source="s7MVz6isGivTQxyH7vhq-6" target="s7MVz6isGivTQxyH7vhq-13" edge="1">
          <mxGeometry relative="1" as="geometry" />
        </mxCell>
        <mxCell id="s7MVz6isGivTQxyH7vhq-23" value="&amp;lt;&amp;lt;extend&amp;gt;&amp;gt;" style="edgeLabel;html=1;align=center;verticalAlign=middle;resizable=0;points=[];" parent="s7MVz6isGivTQxyH7vhq-19" vertex="1" connectable="0">
          <mxGeometry relative="1" as="geometry">
            <mxPoint x="2" y="-6" as="offset" />
          </mxGeometry>
        </mxCell>
        <mxCell id="s7MVz6isGivTQxyH7vhq-6" value="Adicionar alerta de evento" style="ellipse;whiteSpace=wrap;html=1;" parent="1" vertex="1">
          <mxGeometry x="500" y="150" width="90" height="60" as="geometry" />
        </mxCell>
        <mxCell id="s7MVz6isGivTQxyH7vhq-22" style="rounded=0;orthogonalLoop=1;jettySize=auto;html=1;exitX=0;exitY=0.5;exitDx=0;exitDy=0;entryX=1;entryY=0.5;entryDx=0;entryDy=0;" parent="1" source="s7MVz6isGivTQxyH7vhq-7" target="s7MVz6isGivTQxyH7vhq-13" edge="1">
          <mxGeometry relative="1" as="geometry" />
        </mxCell>
        <mxCell id="s7MVz6isGivTQxyH7vhq-25" value="&amp;lt;&amp;lt;extend&amp;gt;&amp;gt;" style="edgeLabel;html=1;align=center;verticalAlign=middle;resizable=0;points=[];" parent="s7MVz6isGivTQxyH7vhq-22" vertex="1" connectable="0">
          <mxGeometry relative="1" as="geometry">
            <mxPoint x="2" y="4" as="offset" />
          </mxGeometry>
        </mxCell>
        <mxCell id="s7MVz6isGivTQxyH7vhq-7" value="Excluir alerta de evento" style="ellipse;whiteSpace=wrap;html=1;" parent="1" vertex="1">
          <mxGeometry x="500" y="290" width="90" height="60" as="geometry" />
        </mxCell>
        <mxCell id="s7MVz6isGivTQxyH7vhq-21" style="edgeStyle=orthogonalEdgeStyle;rounded=0;orthogonalLoop=1;jettySize=auto;html=1;exitX=0;exitY=0.5;exitDx=0;exitDy=0;entryX=1;entryY=0.5;entryDx=0;entryDy=0;" parent="1" source="s7MVz6isGivTQxyH7vhq-8" target="s7MVz6isGivTQxyH7vhq-13" edge="1">
          <mxGeometry relative="1" as="geometry" />
        </mxCell>
        <mxCell id="s7MVz6isGivTQxyH7vhq-24" value="&amp;lt;&amp;lt;extend&amp;gt;&amp;gt;" style="edgeLabel;html=1;align=center;verticalAlign=middle;resizable=0;points=[];" parent="s7MVz6isGivTQxyH7vhq-21" vertex="1" connectable="0">
          <mxGeometry relative="1" as="geometry">
            <mxPoint x="3" as="offset" />
          </mxGeometry>
        </mxCell>
        <mxCell id="s7MVz6isGivTQxyH7vhq-8" value="Atualizar alerta de evento" style="ellipse;whiteSpace=wrap;html=1;" parent="1" vertex="1">
          <mxGeometry x="500" y="220" width="90" height="60" as="geometry" />
        </mxCell>
        <mxCell id="s7MVz6isGivTQxyH7vhq-10" value="Gerenciamento de carteira" style="ellipse;whiteSpace=wrap;html=1;" parent="1" vertex="1">
          <mxGeometry x="130" y="220" width="90" height="60" as="geometry" />
        </mxCell>
        <mxCell id="s7MVz6isGivTQxyH7vhq-32" style="rounded=0;orthogonalLoop=1;jettySize=auto;html=1;exitX=0;exitY=0.5;exitDx=0;exitDy=0;entryX=1;entryY=0.5;entryDx=0;entryDy=0;" parent="1" source="s7MVz6isGivTQxyH7vhq-13" target="s7MVz6isGivTQxyH7vhq-10" edge="1">
          <mxGeometry relative="1" as="geometry" />
        </mxCell>
        <mxCell id="s7MVz6isGivTQxyH7vhq-36" value="&amp;lt;&amp;lt;extends&amp;gt;&amp;gt;" style="edgeLabel;html=1;align=center;verticalAlign=middle;resizable=0;points=[];" parent="s7MVz6isGivTQxyH7vhq-32" vertex="1" connectable="0">
          <mxGeometry relative="1" as="geometry">
            <mxPoint as="offset" />
          </mxGeometry>
        </mxCell>
        <mxCell id="s7MVz6isGivTQxyH7vhq-13" value="Gerenciamento de alertas" style="ellipse;whiteSpace=wrap;html=1;" parent="1" vertex="1">
          <mxGeometry x="330" y="220" width="90" height="60" as="geometry" />
        </mxCell>
        <mxCell id="s7MVz6isGivTQxyH7vhq-33" style="rounded=0;orthogonalLoop=1;jettySize=auto;html=1;exitX=0;exitY=0.5;exitDx=0;exitDy=0;entryX=1;entryY=0.5;entryDx=0;entryDy=0;" parent="1" source="s7MVz6isGivTQxyH7vhq-14" target="s7MVz6isGivTQxyH7vhq-10" edge="1">
          <mxGeometry relative="1" as="geometry" />
        </mxCell>
        <mxCell id="s7MVz6isGivTQxyH7vhq-37" value="&amp;lt;&amp;lt;extends&amp;gt;&amp;gt;" style="edgeLabel;html=1;align=center;verticalAlign=middle;resizable=0;points=[];" parent="s7MVz6isGivTQxyH7vhq-33" vertex="1" connectable="0">
          <mxGeometry relative="1" as="geometry">
            <mxPoint as="offset" />
          </mxGeometry>
        </mxCell>
        <mxCell id="s7MVz6isGivTQxyH7vhq-14" value="Gerenciamento de exchanges" style="ellipse;whiteSpace=wrap;html=1;" parent="1" vertex="1">
          <mxGeometry x="290" y="370" width="90" height="60" as="geometry" />
        </mxCell>
        <mxCell id="s7MVz6isGivTQxyH7vhq-42" style="rounded=0;orthogonalLoop=1;jettySize=auto;html=1;exitX=0;exitY=0.5;exitDx=0;exitDy=0;entryX=1;entryY=0.5;entryDx=0;entryDy=0;" parent="1" source="s7MVz6isGivTQxyH7vhq-41" target="s7MVz6isGivTQxyH7vhq-14" edge="1">
          <mxGeometry relative="1" as="geometry" />
        </mxCell>
        <mxCell id="s7MVz6isGivTQxyH7vhq-47" value="&amp;lt;&amp;lt;extend&amp;gt;&amp;gt;" style="edgeLabel;html=1;align=center;verticalAlign=middle;resizable=0;points=[];" parent="s7MVz6isGivTQxyH7vhq-42" vertex="1" connectable="0">
          <mxGeometry relative="1" as="geometry">
            <mxPoint as="offset" />
          </mxGeometry>
        </mxCell>
        <mxCell id="s7MVz6isGivTQxyH7vhq-41" value="Excluir exchange" style="ellipse;whiteSpace=wrap;html=1;" parent="1" vertex="1">
          <mxGeometry x="460" y="440" width="90" height="60" as="geometry" />
        </mxCell>
        <mxCell id="A362uCRUjKIMGUkiAdtS-1" value="Gerenciamento de Carteira" style="text;html=1;align=center;verticalAlign=middle;resizable=0;points=[];autosize=1;strokeColor=none;fillColor=none;strokeWidth=1;fontSize=14;" vertex="1" parent="1">
          <mxGeometry x="90" y="70" width="190" height="30" as="geometry" />
        </mxCell>
      </root>
    </mxGraphModel>
  </diagram>
</mxfile>
